<?xml version="1.0" standalone="no"?>
<!DOCTYPE svg PUBLIC "-//W3C//DTD SVG 20010904//EN"
 "http://www.w3.org/TR/2001/REC-SVG-20010904/DTD/svg10.dtd">
<svg version="1.0" xmlns="http://www.w3.org/2000/svg"
 width="512.000000pt" height="512.000000pt" viewBox="0 0 512.000000 512.000000"
 preserveAspectRatio="xMidYMid meet">

<g transform="translate(0.000000,512.000000) scale(0.100000,-0.100000)"
fill="#000000" stroke="none">
<path d="M205 4381 c-90 -40 -139 -119 -139 -221 0 -110 63 -194 168 -225 75
-23 4577 -23 4652 0 105 31 168 115 168 225 0 100 -50 181 -139 221 -38 18
-134 19 -2355 19 -2221 0 -2317 -1 -2355 -19z"/>
<path d="M221 2786 c-48 -17 -108 -71 -133 -119 -31 -58 -31 -156 -1 -213 28
-52 79 -97 134 -118 40 -15 189 -16 1790 -14 l1746 3 49 30 c30 19 60 49 79
79 27 44 30 58 30 126 0 68 -3 82 -30 126 -19 30 -49 60 -79 79 l-49 30 -1751
2 c-1359 1 -1759 -1 -1785 -11z"/>
<path d="M241 1190 c-45 -11 -110 -58 -138 -99 -82 -122 -33 -291 102 -352 38
-18 134 -19 2355 -19 2221 0 2317 1 2355 19 89 40 139 121 139 221 0 78 -25
133 -81 179 -79 65 90 61 -2417 60 -1255 -1 -2296 -5 -2315 -9z"/>
</g>
</svg>
